<svg viewBox="0 0 1000 300" xmlns="http://www.w3.org/2000/svg" xml:space="preserve" style="fill-rule:evenodd;clip-rule:evenodd;stroke-linejoin:round;stroke-miterlimit:2"><path d="M199.454 166.816c1 5.281-2.808 12.832-5.425 16.652-2.345 3.423-6.161 7.571-9.629 11.25-3.469 3.68-11.899 8.668-17.289 10.965-5.391 2.297-13.672 3.446-20.844 3.446-5.438 0-13.553.048-18.836-1.547-5.571-1.683-9.476-3.666-16.129-7.817-6.653-4.151-12.059-11.469-15.98-16.476-2.741-3.5-6.364-11.285-7.325-15.832-.961-4.547-2.441-11.375-2.441-16.485 0-8.297 2.69-19.94 5.621-26.289 4.414-9.562 9.428-15.648 14.371-19.84 5.5-4.664 11.774-8.214 17.82-10.652 6.047-2.437 15.493-3.656 22.336-3.656 8.344 0 17.774 1.664 24.289 4.992 6.516 3.328 15.508 10.441 18.977 15.34 2.063 2.913 5.22 6.438 6.629 10.155.961 2.533 1.303 7.26.574 9.732-1 3.39-4.154 8.595-7.531 9.328-2.748.596-8.149 1.207-11.117-.258-2.618-1.292-4.958-4.923-7.477-8.438-2.392-3.338-5.72-6.245-10.598-8.461-2.809-1.276-8.214-1.796-13.605-1.796-9.578 0-15.861 3.921-20.496 8.773-2.801 2.932-8.629 10.773-8.629 20.773 0 8.016 3.334 16.876 7.375 21.004 3.25 3.321 7.179 6.939 10.563 7.918 4.337 1.256 8.953 1.938 12.484 1.938 4 0 10.465-1.008 16.223-4.465 2.502-1.503 8.114-6.643 10.386-11.113 1.891-3.719 3.952-7.709 6.633-9.211 3.186-1.785 9.626-1.119 12.399.601 3.357 2.083 6.006 5.953 6.671 9.469ZM462.392 107.05l29.148 42.75v-41.312c0-6.984 2.804-12.019 4.567-13.965 2.711-2.992 8.019-3.988 10.926-3.988 3 0 8.367 1.996 11.101 4.988 1.782 1.95 4.602 5.981 4.602 12.965v81.07c0 9.047-2.094 14.288-6.25 16.571-3.07 1.685-8.537 3.523-12.063 3.191-2.575-.243-7.093-1.082-9.219-2.566-2.569-1.796-5.531-4.543-6.656-6.114-1.125-1.57-4.25-6.176-5.375-7.816l-27.164-42.047v40.398c0 3.938-1.331 10.603-3.742 12.93-2.537 2.449-7.172 5.024-12.031 5.024-5.953 0-10.321-3.02-12.102-5.059-1.781-2.039-3.672-9.004-3.672-12.895v-79.523c0-3.375.834-8.69 2.125-10.945 1.542-2.693 5.367-6.832 7.43-8.168 2.062-1.336 7.289-2.004 9.68-2.004 1.875 0 7.318 1.349 9.332 3.375 2.013 2.025 5.238 6.359 9.363 13.14ZM353.392 107.05l29.148 42.75v-41.312c0-6.984 2.804-12.019 4.567-13.965 2.711-2.992 8.019-3.988 10.926-3.988 3 0 8.367 1.996 11.101 4.988 1.782 1.95 4.602 5.981 4.602 12.965v81.07c0 9.047-2.094 14.288-6.25 16.571-3.07 1.685-8.537 3.523-12.063 3.191-2.575-.243-7.093-1.082-9.219-2.566-2.569-1.796-5.531-4.543-6.656-6.114-1.125-1.57-4.25-6.176-5.375-7.816l-27.164-42.047v40.398c0 3.938-1.331 10.603-3.742 12.93-2.537 2.449-7.172 5.024-12.031 5.024-5.953 0-10.321-3.02-12.102-5.059-1.781-2.039-3.672-9.004-3.672-12.895v-79.523c0-3.375.834-8.69 2.125-10.945 1.542-2.693 5.367-6.832 7.43-8.168 2.062-1.336 7.289-2.004 9.68-2.004 1.875 0 7.318 1.349 9.332 3.375 2.013 2.025 5.238 6.359 9.363 13.14ZM607.509 120.394H566.47v13.313h37.313c5.187 0 11.256 2.148 13.136 5.144 1.544 2.459 2.356 5.317 2.356 8.66 0 3.344-1.787 8.24-3.321 9.731-2.546 2.476-6.937 4.215-12.171 4.215H566.47v17.32h42.656c5.282 0 10.754 2.762 12.418 4.285 1.664 1.524 3.496 5.551 3.496 9.082 0 4.438-.686 7.64-2.496 9.942-2.314 2.944-6.136 5.285-13.418 5.285h-56.742c-6.547 0-11.458-1.44-13.809-4.024-2.427-2.668-4.988-8.273-4.988-14.773v-77.485c0-4 .446-8.449 2.336-11.347 1.146-1.757 4.285-4.281 6.184-5.149 1.898-.867 5.324-2.3 10.277-2.3h55.125c5.328 0 9.801 1.738 12.418 4.214 1.591 1.506 3.426 5.411 3.426 9.801 0 4.438-2.809 9.395-4.426 10.871-1.617 1.477-6.09 3.215-11.418 3.215ZM741.454 166.816c1 5.281-2.808 12.832-5.425 16.652-2.345 3.423-6.161 7.571-9.629 11.25-3.469 3.68-11.899 8.668-17.289 10.965-5.391 2.297-13.672 3.446-20.844 3.446-5.438 0-13.553.048-18.836-1.547-5.571-1.683-9.476-3.666-16.129-7.817-6.653-4.151-12.059-11.469-15.98-16.476-2.741-3.5-6.364-11.285-7.325-15.832-.961-4.547-2.441-11.375-2.441-16.485 0-8.297 2.69-19.94 5.621-26.289 4.414-9.562 9.428-15.648 14.371-19.84 5.5-4.664 11.774-8.214 17.82-10.652 6.047-2.437 15.493-3.656 22.336-3.656 8.344 0 17.774 1.664 24.289 4.992 6.516 3.328 15.508 10.441 18.977 15.34 2.063 2.913 5.22 6.438 6.629 10.155.961 2.533 1.303 7.26.574 9.732-1 3.39-4.154 8.595-7.531 9.328-2.748.596-8.149 1.207-11.117-.258-2.618-1.292-4.958-4.923-7.477-8.438-2.392-3.338-5.72-6.245-10.598-8.461-2.809-1.276-8.214-1.796-13.605-1.796-9.578 0-15.861 3.921-20.496 8.773-2.801 2.932-8.629 10.773-8.629 20.773 0 8.016 3.334 16.876 7.375 21.004 3.25 3.321 7.179 6.939 10.563 7.918 4.337 1.256 8.953 1.938 12.484 1.938 4 0 10.465-1.008 16.223-4.465 2.502-1.503 8.114-6.643 10.386-11.113 1.891-3.719 3.952-7.709 6.633-9.211 3.186-1.785 9.626-1.119 12.399.601 3.357 2.083 6.006 5.953 6.671 9.469ZM827.165 121.519l-16.781 1v68.883c0 4.312-1.961 10.512-3.883 12.598-1.922 2.086-7.406 5.129-12.453 5.129-5.094 0-11.613-3.055-13.558-6.165-1.522-2.432-2.918-8.296-2.918-12.562v-68.883H760.79c-3.562 0-8.241-.754-11.945-4.355-2.691-2.617-4.602-7.645-4.602-10.223 0-2.672 1.333-6.389 3.707-9.328 1.962-2.428 8.418-5.32 11.84-5.32h66.375c3.61 0 7.6.702 12.051 3.39 2.715 1.64 5.637 6.68 5.637 11.258 0 4.578-2.891 9.652-5.672 11.223-2.068 1.167-7.453 3.355-11.016 3.355ZM883.995 198.132v-12.679h-32.619c-4.998 0-11.011-3.403-13.442-5.666-2.864-2.665-3.79-9.938-3.343-13.236.299-2.203 1.051-4.616 6.209-11.142l40.829-54.956c2.735-3.683 5.533-7.035 10.747-9.01 3.845-1.457 13.058-.405 16.354 3.514 3.464 4.119 4.996 8.577 4.996 14.732l1 48.085c4.051 0 8.479 1.549 10.14 3.658 2.447 3.105 2.67 6.525 2.67 10.261 0 4.051-1.437 7.798-2.999 9.669-1.999 2.394-4.998 3.091-6.997 3.091h-4.814v13.679c0 2.052-2.895 6.064-4.684 8.037-1.789 1.973-6.183 3.96-9.182 3.96-2.946 0-6.327-1.013-9.142-3.039-2.208-1.589-5.723-4.012-5.723-8.958Zm-12.936-40.358h12.936v-17.853l-12.936 17.853Z" style="fill:#fff;fill-rule:nonzero"/><path d="M190.954 161.816c2.568 1.464 4.357 6.347 2.4 10.235-1.491 2.961-2.558 6.362-3.825 8.417-3.345 5.423-10.008 11.781-13.629 14.25-6.002 4.092-15.961 9.411-29.133 9.411-5.438 0-9.383-.516-13.836-1.547-4.453-1.032-9.496-2.637-13.129-4.817-3.633-2.179-7.973-5.051-12.019-8.613-3.172-2.792-8.017-9.866-9.961-13.863-2.922-6.008-5.766-16.207-5.766-25.317 0-8.297 2.207-18.726 5.621-25.289 3.227-6.203 5.871-10.176 10.371-14.84s10.774-8.214 16.82-10.652c6.047-2.437 13.493-3.656 20.336-3.656 8.344 0 16.6 2.03 23.289 4.992 7.516 3.328 12.465 7.48 15.977 11.34 4.99 5.484 7.203 10.527 7.203 14.887 0 3.39-1.258 6.671-3.531 8.328-2.378 1.732-6.637 2.86-9.129.843-1.624-1.314-3.041-2.717-4.542-5.462-1.824-3.335-6.587-7.475-10.923-10.077-4.741-2.844-9.812-4.257-19.203-4.257-8.578 0-13.342 3.358-19.496 7.773-6.726 4.826-12.629 13.773-12.629 27.773 0 9.016 2.682 17.114 9.375 24.004 7.012 7.218 17.516 9.856 23.047 9.856 6 0 11.509-.502 16.223-2.465 7.148-2.977 9.376-5.763 14.386-12.113 2.643-3.35 3.851-7.173 5.305-8.645 4.02-4.069 7.996-1.866 10.398-.496ZM347.986 109.05l40.148 60.75v-61.312c0-3.984.856-6.973 2.566-8.965 1.711-1.992 4.02-2.988 6.926-2.988 3 0 5.367.996 7.102 2.988 1.734 1.992 2.601 4.981 2.601 8.965v81.07c0 9.047-3.75 13.571-11.25 13.571-1.875 0-3.562-.27-5.062-.809-1.5-.539-2.906-1.395-4.219-2.566-1.312-1.172-2.531-2.543-3.656-4.114a286.957 286.957 0 0 1-3.375-4.816l-39.164-60.047v60.398c0 3.938-.914 6.914-2.742 8.93-1.828 2.016-4.172 3.024-7.032 3.024-2.953 0-5.32-1.02-7.101-3.059-1.781-2.039-2.672-5.004-2.672-8.895v-79.523c0-3.375.375-6.023 1.125-7.945.891-2.11 2.367-3.832 4.43-5.168 2.062-1.336 4.289-2.004 6.679-2.004 1.875 0 3.481.304 4.817.914a11.585 11.585 0 0 1 3.515 2.461c1.008 1.031 2.039 2.367 3.094 4.008a737.36 737.36 0 0 1 3.27 5.132ZM457.392 109.05l40.148 60.75v-61.312c0-3.984.856-6.973 2.567-8.965 1.711-1.992 4.019-2.988 6.926-2.988 3 0 5.367.996 7.101 2.988s2.602 4.981 2.602 8.965v81.07c0 9.047-3.75 13.571-11.25 13.571-1.875 0-3.563-.27-5.063-.809-1.5-.539-2.906-1.395-4.219-2.566-1.312-1.172-2.531-2.543-3.656-4.114a286.957 286.957 0 0 1-3.375-4.816l-39.164-60.047v60.398c0 3.938-.914 6.914-2.742 8.93-1.828 2.016-4.172 3.024-7.031 3.024-2.953 0-5.321-1.02-7.102-3.059-1.781-2.039-2.672-5.004-2.672-8.895v-79.523c0-3.375.375-6.023 1.125-7.945.891-2.11 2.367-3.832 4.43-5.168 2.062-1.336 4.289-2.004 6.68-2.004 1.875 0 3.48.304 4.816.914a11.601 11.601 0 0 1 3.516 2.461c1.007 1.031 2.039 2.367 3.093 4.008a737.36 737.36 0 0 1 3.27 5.132ZM607.509 114.394H560.47v25.313h43.313c3.187 0 5.566.714 7.136 2.144 1.571 1.43 2.356 3.317 2.356 5.66 0 2.344-.774 4.254-2.321 5.731-1.546 1.476-3.937 2.215-7.171 2.215H560.47v29.32h48.656c3.282 0 5.754.762 7.418 2.285 1.664 1.524 2.496 3.551 2.496 6.082 0 2.438-.832 4.418-2.496 5.942-1.664 1.523-4.136 2.285-7.418 2.285h-56.742c-4.547 0-7.816-1.008-9.809-3.024-1.992-2.015-2.988-5.273-2.988-9.773v-77.485c0-3 .446-5.449 1.336-7.347.891-1.899 2.285-3.281 4.184-4.149 1.898-.867 4.324-1.3 7.277-1.3h55.125c3.328 0 5.801.738 7.418 2.214 1.617 1.477 2.426 3.411 2.426 5.801 0 2.438-.809 4.395-2.426 5.871-1.617 1.477-4.09 2.215-7.418 2.215ZM732.954 161.816c2.568 1.464 4.357 6.347 2.4 10.235-1.491 2.961-2.558 6.362-3.825 8.417-3.345 5.423-10.008 11.781-13.629 14.25-6.002 4.092-15.961 9.411-29.133 9.411-5.438 0-9.383-.516-13.836-1.547-4.453-1.032-9.496-2.637-13.129-4.817-3.633-2.179-7.973-5.051-12.019-8.613-3.172-2.792-8.017-9.866-9.961-13.863-2.922-6.008-5.766-16.207-5.766-25.317 0-8.297 2.207-18.726 5.621-25.289 3.227-6.203 5.871-10.176 10.371-14.84s10.774-8.214 16.82-10.652c6.047-2.437 13.493-3.656 20.336-3.656 8.344 0 16.6 2.03 23.289 4.992 7.516 3.328 12.465 7.48 15.977 11.34 4.99 5.484 7.203 10.527 7.203 14.887 0 3.39-1.258 6.671-3.531 8.328-2.378 1.732-6.637 2.86-9.129.843-1.624-1.314-3.041-2.717-4.542-5.462-1.824-3.335-6.587-7.475-10.923-10.077-4.741-2.844-9.812-4.257-19.203-4.257-8.578 0-13.342 3.358-19.496 7.773-6.726 4.826-12.629 13.773-12.629 27.773 0 9.016 2.682 17.114 9.375 24.004 7.012 7.218 17.516 9.856 23.047 9.856 6 0 11.509-.502 16.223-2.465 7.148-2.977 9.376-5.763 14.386-12.113 2.643-3.35 3.851-7.173 5.305-8.645 4.02-4.069 7.996-1.866 10.398-.496ZM827.165 115.519h-22.781v74.883c0 4.312-.961 7.512-2.883 9.598-1.922 2.086-4.406 3.129-7.453 3.129-3.094 0-5.613-1.055-7.558-3.165-1.946-2.109-2.918-5.296-2.918-9.562v-74.883H760.79c-3.562 0-6.211-.785-7.945-2.355-1.734-1.571-2.602-3.645-2.602-6.223 0-2.672.903-4.781 2.707-6.328 1.805-1.547 4.418-2.32 7.84-2.32h66.375c3.61 0 6.293.796 8.051 2.39s2.637 3.68 2.637 6.258-.891 4.652-2.672 6.223c-1.781 1.57-4.453 2.355-8.016 2.355ZM889.392 192.441v-13.078h-35.297c-4.453 0-7.793-1.008-10.02-3.024-2.226-2.015-3.339-4.757-3.339-8.226 0-.891.164-1.793.492-2.707.328-.914.82-1.875 1.476-2.883a54.305 54.305 0 0 1 2.039-2.918c.704-.937 1.571-2.086 2.602-3.445l37.266-49.852c2.437-3.281 4.441-5.66 6.011-7.137 1.571-1.476 3.457-2.214 5.661-2.214 7.125 0 10.687 4.078 10.687 12.234v54.422h3.023c3.61 0 6.504.492 8.684 1.476 2.18.985 3.27 3.141 3.27 6.469 0 2.719-.891 4.699-2.672 5.942-1.782 1.242-4.453 1.863-8.016 1.863h-4.289v13.078c0 3.609-.797 6.293-2.391 8.051-1.593 1.758-3.726 2.637-6.398 2.637-2.625 0-4.746-.903-6.363-2.708-1.618-1.804-2.426-4.464-2.426-7.98Zm-30.234-28.828h30.234v-40.852l-30.234 40.852Z" style="fill:#3497ce;fill-rule:nonzero"/><path d="M190.025 164.747c1.961 2.598 1.303 5.492-.308 9.053-2.634 5.819-8.542 12.663-12.92 15.763-3.863 2.735-8.092 4.892-12.821 7.314-4.921 2.521-11.015 3.252-17.783 3.252-5.131 0-9.798-.487-14.001-1.46-4.202-.973-8.018-2.489-11.446-4.546-3.428-2.057-6.58-4.766-9.456-8.128-2.565-3.052-6.755-8.47-8.569-12.252-1.813-3.782-5.441-15.957-5.441-23.779 0-9.83 3.895-20.454 7.417-26.034 3.279-5.193 7.294-10.839 14.788-15.892 6.904-4.655 16.719-7.503 26.177-7.503 7.874 0 14.886 1.57 20.035 3.711 6.375 2.651 11.336 5.442 15.133 9.645 3.274 3.623 7.93 8.03 7.93 13.164 0 3.256-3.122 5.545-6.408 4.952-2.643-.476-5.141-4.184-7.719-7.394-3.251-4.049-7.359-7.811-13.076-9.796-4.79-1.664-10.675-2.545-15.762-2.545-11.095 0-20.494 4.083-26.304 10.204-6.342 6.684-12.18 16.827-12.18 28.152 0 10.564 4.37 20.347 11.21 28.086 6.238 7.058 19.39 11.677 26.61 11.677 10.624 0 18.393-3.366 22.308-6.175 3.915-2.809 8.733-7.058 10.858-10.355 2.67-4.143 4.33-7.495 5.207-9.238.782-1.554 4.774-2.191 6.521.124Z" style="fill:url(#a);fill-rule:nonzero"/><path d="m456.304 111.346 43.889 65.33v-68.861c0-2.76.807-4.58 1.422-5.46 1.419-2.032 3.793-2.82 5.536-2.82 1.831 0 3.811 1.198 4.701 1.82 1.462 1.019 2.456 2.7 2.456 6.46v82.507c0 9.538-5.936 10.263-9.395 10.043-3.478-.22-5.772-1.284-7.981-3.422-2.209-2.137-5.574-7.878-6.636-9.427l-41.959-63.666v64.998c0 3.716-.474 6.723-1.588 8.427-.915 1.4-2.937 2.854-5.635 2.854-2.787 0-5.021-.963-6.702-2.887s-1.522-4.722-1.522-8.394v-75.047c0-3.185.354-5.684 1.062-7.498.84-1.991 1.234-3.616 3.18-4.877 1.947-1.261 4.048-1.891 6.304-1.891 2.769 0 5.912 2.212 6.863 3.185.951.973 3.943 5.945 6.005 8.626Z" style="fill:url(#b);fill-rule:nonzero"/><path d="m346.304 111.346 43.889 65.33v-68.861c0-2.76.807-4.58 1.422-5.46 1.419-2.032 3.793-2.82 5.536-2.82 1.831 0 3.811 1.198 4.701 1.82 1.462 1.019 2.456 2.7 2.456 6.46v82.507c0 10.538-5.936 10.263-9.395 10.043-3.478-.22-5.772-1.284-7.981-3.422-2.209-2.137-5.574-7.878-6.636-9.427l-41.959-63.666v64.998c0 3.716-.474 6.723-1.588 8.427-.915 1.4-2.937 2.854-5.635 2.854-2.787 0-5.021-.963-6.702-2.887s-1.522-4.722-1.522-8.394v-75.047c0-3.185.354-5.684 1.062-7.498.84-1.991 1.234-3.616 3.18-4.877 1.947-1.261 4.048-1.891 6.304-1.891 2.769 0 5.912 2.212 6.863 3.185.951.973 3.943 5.945 6.005 8.626Z" style="fill:url(#c);fill-rule:nonzero"/><path d="M606.415 111.769h-48.214V142.1h44.632c3.064 0 4.469.365 5.86 1.061.981.491 2.264 2.188 2.264 4.44 0 2.253-1.392 3.98-2.23 4.508-1.098.692-2.785 1.129-5.894 1.129h-44.632v34.183h49.768c3.154 0 4.531-.268 6.13 1.196 1.6 1.465 2.4 2.413 2.4 3.846 0 1.343-.685 3.383-2.4 4.711-.599.465-2.976 1.197-6.13 1.197h-54.54c-4.37 0-7.513-.969-9.428-2.906-1.915-1.938-1.872-4.069-1.872-8.395v-74.477c0-2.884-.398-6.99 2.284-9.063 2.698-2.085 6.178-2.237 9.016-2.237h52.986c3.199 0 3.576-.291 5.13.128 2.032.549 3.332 2.278 3.332 4.576 0 2.343-1.3 5.095-3.332 5.643-1.554.42-1.931.129-5.13.129Z" style="fill:url(#d);fill-rule:nonzero"/><path d="M731.025 164.747c1.961 2.598 1.303 5.492-.308 9.053-2.634 5.819-8.542 12.663-12.92 15.763-3.863 2.735-8.092 4.892-12.821 7.314-4.921 2.521-11.015 3.252-17.783 3.252-5.131 0-9.798-.487-14.001-1.46-4.202-.973-8.018-2.489-11.446-4.546-3.428-2.057-6.58-4.766-9.456-8.128-2.565-3.052-6.755-8.47-8.569-12.252-1.813-3.782-5.441-15.957-5.441-23.779 0-9.83 3.895-20.454 7.417-26.034 3.279-5.193 7.294-10.839 14.788-15.892 6.904-4.655 16.719-7.503 26.177-7.503 7.874 0 14.886 1.57 20.035 3.711 6.375 2.651 11.336 5.442 15.133 9.645 3.274 3.623 7.93 8.03 7.93 13.164 0 3.256-3.122 5.545-6.408 4.952-2.643-.476-5.141-4.184-7.719-7.394-3.251-4.049-7.359-7.811-13.076-9.796-4.79-1.664-10.675-2.545-15.762-2.545-11.095 0-20.494 4.083-26.304 10.204-6.342 6.684-12.18 16.827-12.18 28.152 0 10.564 4.37 20.347 11.21 28.086 6.238 7.058 19.39 11.677 26.61 11.677 10.624 0 18.393-3.366 22.308-6.175 3.915-2.809 8.733-7.058 10.858-10.355 2.67-4.143 4.33-7.495 5.207-9.238.782-1.554 4.774-2.191 6.521.124Z" style="fill:url(#e);fill-rule:nonzero"/><path d="M827.165 113.519h-24.781v76.883c0 4.312-1.051 6.441-1.883 7.598-.835 1.162-3.406 3.129-6.453 3.129-3.094 0-4.697-.98-6.558-3.165-.946-1.109-1.918-3.296-1.918-7.562v-76.883H760.79c-2.562 0-3.211-.785-4.945-1.355-2.223-.731-3.602-2.645-3.602-5.223 0-2.672.903-3.781 2.707-5.328 1.805-1.547 4.418-1.32 5.84-1.32h66.375c2.61 0 4.194-.047 5.051.39 2.868 1.464 3.637 3.68 3.637 6.258s-.754 3.823-2.672 5.223c-.781.57-2.453 1.355-6.016 1.355Z" style="fill:url(#f);fill-rule:nonzero"/><path d="M891.395 189.944v-12.462h-35.634c-4.244 0-8.336-1.065-10.548-2.881-1.122-.921-2.183-2.534-2.183-5.839 0-1.849.938-4.822 1.469-5.58 1.313-1.871 3.847-5.515 5.829-7.81l36.511-47.504c2.323-3.127 3.25-4.375 4.729-5.801 2.496-2.407 5.178-2.817 7.393-2.11 3.324 1.059 6.185 2.886 6.185 10.658v54.859h2.881c3.439 0 6.197-.531 8.274.407 2.077.938 4.116 2.993 4.116 5.164 0 1.591-.849 3.478-2.546 4.662-1.698 1.183-4.244 1.775-7.638 1.775h-5.087v12.462c0 3.44-.403 7.153-1.279 8.672-.668 1.16-2.551 2.513-5.097 2.513-2.501 0-5.37-1.377-6.063-3.58-.541-1.72-1.312-4.255-1.312-7.605Zm-36.81-24.47h36.81v-48.928l-36.81 48.928Z" style="fill:url(#g);fill-rule:nonzero"/><circle cx="147" cy="151" r="25" style="fill:#a00000"/><circle cx="147" cy="151" r="23.75" style="fill:url(#h)"/><circle cx="147" cy="151" r="21.5" style="fill:url(#i)"/><circle cx="147.125" cy="151.125" r="20.375" style="fill:url(#j)"/><circle cx="147.125" cy="151.125" r="19.125" style="fill:url(#k)"/><circle cx="690" cy="151" r="25" style="fill:#a00000"/><circle cx="690" cy="151" r="23.75" style="fill:url(#l)"/><circle cx="690" cy="151" r="21.5" style="fill:url(#m)"/><circle cx="690.125" cy="151.125" r="20.375" style="fill:url(#n)"/><circle cx="690.125" cy="151.125" r="19.125" style="fill:url(#o)"/><circle cx="256" cy="149" r="54" style="fill:#d8a200"/><circle cx="256" cy="149" r="51.3" style="fill:url(#p)"/><circle cx="256" cy="149" r="46.44" style="fill:url(#q)"/><circle cx="256.27" cy="149.27" r="44.01" style="fill:url(#r)"/><circle cx="256.27" cy="149.27" r="41.31" style="fill:url(#s)"/><defs><linearGradient id="a" x1="0" y1="0" x2="1" y2="0" gradientUnits="userSpaceOnUse" gradientTransform="rotate(90 -68.556 28.586) scale(106.639)"><stop offset="0" style="stop-color:#c8eafd;stop-opacity:1"/><stop offset=".5" style="stop-color:#007bd3;stop-opacity:1"/><stop offset="1" style="stop-color:#005d9e;stop-opacity:1"/></linearGradient><linearGradient id="b" x1="0" y1="0" x2="1" y2="0" gradientUnits="userSpaceOnUse" gradientTransform="rotate(90 193.136 290.279) scale(106.639)"><stop offset="0" style="stop-color:#c8eafd;stop-opacity:1"/><stop offset=".5" style="stop-color:#007bd3;stop-opacity:1"/><stop offset="1" style="stop-color:#005d9e;stop-opacity:1"/></linearGradient><linearGradient id="c" x1="0" y1="0" x2="1" y2="0" gradientUnits="userSpaceOnUse" gradientTransform="rotate(90 138.136 235.279) scale(106.639)"><stop offset="0" style="stop-color:#c8eafd;stop-opacity:1"/><stop offset=".5" style="stop-color:#007bd3;stop-opacity:1"/><stop offset="1" style="stop-color:#005d9e;stop-opacity:1"/></linearGradient><linearGradient id="d" x1="0" y1="0" x2="1" y2="0" gradientUnits="userSpaceOnUse" gradientTransform="rotate(90 195.766 291.933) scale(108.615)"><stop offset="0" style="stop-color:#c8eafd;stop-opacity:1"/><stop offset=".5" style="stop-color:#007bd3;stop-opacity:1"/><stop offset="1" style="stop-color:#005d9e;stop-opacity:1"/></linearGradient><linearGradient id="e" x1="0" y1="0" x2="1" y2="0" gradientUnits="userSpaceOnUse" gradientTransform="rotate(90 201.944 299.086) scale(106.639)"><stop offset="0" style="stop-color:#c8eafd;stop-opacity:1"/><stop offset=".5" style="stop-color:#007bd3;stop-opacity:1"/><stop offset="1" style="stop-color:#005d9e;stop-opacity:1"/></linearGradient><linearGradient id="f" x1="0" y1="0" x2="1" y2="0" gradientUnits="userSpaceOnUse" gradientTransform="matrix(0 113 -113 0 502 94)"><stop offset="0" style="stop-color:#c8eafd;stop-opacity:1"/><stop offset=".5" style="stop-color:#007bd3;stop-opacity:1"/><stop offset="1" style="stop-color:#005d9e;stop-opacity:1"/></linearGradient><linearGradient id="g" x1="0" y1="0" x2="1" y2="0" gradientUnits="userSpaceOnUse" gradientTransform="rotate(90 212.054 308.193) scale(107.678)"><stop offset="0" style="stop-color:#c8eafd;stop-opacity:1"/><stop offset=".5" style="stop-color:#007bd3;stop-opacity:1"/><stop offset="1" style="stop-color:#005d9e;stop-opacity:1"/></linearGradient><linearGradient id="h" x1="0" y1="0" x2="1" y2="0" gradientUnits="userSpaceOnUse" gradientTransform="rotate(90 9.75 137) scale(47.25)"><stop offset="0" style="stop-color:#c00000;stop-opacity:1"/><stop offset=".5" style="stop-color:#d61727;stop-opacity:1"/><stop offset="1" style="stop-color:#ff777c;stop-opacity:1"/></linearGradient><linearGradient id="i" x1="0" y1="0" x2="1" y2="0" gradientUnits="userSpaceOnUse" gradientTransform="rotate(90 8.637 138.137) scale(42.7737)"><stop offset="0" style="stop-color:#820511;stop-opacity:1"/><stop offset=".5" style="stop-color:#c21523;stop-opacity:1"/><stop offset="1" style="stop-color:#a2131d;stop-opacity:1"/></linearGradient><linearGradient id="j" x1="0" y1="0" x2="1" y2="0" gradientUnits="userSpaceOnUse" gradientTransform="rotate(90 8.08 138.83) scale(40.5355)"><stop offset="0" style="stop-color:#ffd7d8;stop-opacity:1"/><stop offset=".5" style="stop-color:#df0000;stop-opacity:1"/><stop offset="1" style="stop-color:#c50000;stop-opacity:1"/></linearGradient><linearGradient id="k" x1="0" y1="0" x2="1" y2="0" gradientUnits="userSpaceOnUse" gradientTransform="rotate(90 7.462 139.462) scale(38.0487)"><stop offset="0" style="stop-color:#ff8e92;stop-opacity:1"/><stop offset=".61" style="stop-color:#ba0000;stop-opacity:1"/><stop offset="1" style="stop-color:#f20000;stop-opacity:1"/></linearGradient><linearGradient id="l" x1="0" y1="0" x2="1" y2="0" gradientUnits="userSpaceOnUse" gradientTransform="rotate(90 281.25 408.5) scale(47.25)"><stop offset="0" style="stop-color:#c00000;stop-opacity:1"/><stop offset=".5" style="stop-color:#d61727;stop-opacity:1"/><stop offset="1" style="stop-color:#ff777c;stop-opacity:1"/></linearGradient><linearGradient id="m" x1="0" y1="0" x2="1" y2="0" gradientUnits="userSpaceOnUse" gradientTransform="rotate(90 280.137 409.637) scale(42.7737)"><stop offset="0" style="stop-color:#820511;stop-opacity:1"/><stop offset=".5" style="stop-color:#c21523;stop-opacity:1"/><stop offset="1" style="stop-color:#a2131d;stop-opacity:1"/></linearGradient><linearGradient id="n" x1="0" y1="0" x2="1" y2="0" gradientUnits="userSpaceOnUse" gradientTransform="rotate(90 279.58 410.33) scale(40.5355)"><stop offset="0" style="stop-color:#ffd7d8;stop-opacity:1"/><stop offset=".5" style="stop-color:#df0000;stop-opacity:1"/><stop offset="1" style="stop-color:#c50000;stop-opacity:1"/></linearGradient><linearGradient id="o" x1="0" y1="0" x2="1" y2="0" gradientUnits="userSpaceOnUse" gradientTransform="matrix(0 38.0487 -38.0487 0 689.924 132)"><stop offset="0" style="stop-color:#ff8e92;stop-opacity:1"/><stop offset=".61" style="stop-color:#ba0000;stop-opacity:1"/><stop offset="1" style="stop-color:#f20000;stop-opacity:1"/></linearGradient><linearGradient id="p" x1="0" y1="0" x2="1" y2="0" gradientUnits="userSpaceOnUse" gradientTransform="rotate(90 78.88 176.58) scale(102.06)"><stop offset="0" style="stop-color:#ffb700;stop-opacity:1"/><stop offset=".5" style="stop-color:#ffd952;stop-opacity:1"/><stop offset="1" style="stop-color:#ffe76e;stop-opacity:1"/></linearGradient><linearGradient id="q" x1="0" y1="0" x2="1" y2="0" gradientUnits="userSpaceOnUse" gradientTransform="rotate(90 76.475 179.036) scale(92.3912)"><stop offset="0" style="stop-color:#e2ac00;stop-opacity:1"/><stop offset="1" style="stop-color:#c59400;stop-opacity:1"/></linearGradient><linearGradient id="r" x1="0" y1="0" x2="1" y2="0" gradientUnits="userSpaceOnUse" gradientTransform="rotate(90 75.273 180.534) scale(87.5567)"><stop offset="0" style="stop-color:#fffbd5;stop-opacity:1"/><stop offset=".5" style="stop-color:#e9b100;stop-opacity:1"/><stop offset="1" style="stop-color:#e5af00;stop-opacity:1"/></linearGradient><linearGradient id="s" x1="0" y1="0" x2="1" y2="0" gradientUnits="userSpaceOnUse" gradientTransform="rotate(90 73.938 181.898) scale(82.1852)"><stop offset="0" style="stop-color:#ffea88;stop-opacity:1"/><stop offset=".61" style="stop-color:#e4a700;stop-opacity:1"/><stop offset="1" style="stop-color:#e7a100;stop-opacity:1"/></linearGradient></defs></svg>